# xmcd
#
# Track frame offsets:
# 150
# 12822
# 26007
# 38211
# 51711
# 65211
# 79053
# 91419
# 108024
# 118929
# 130143
#
# Disc length: 1933 seconds
#
# Revision: 0
# Processed by: cddbd v1.5PL3 Copyright (c) Steve Scherf et al.
# Submitted via: Audion 3.0.2 (http://www.panic.com/audion/)
#
DISCID=95078b0b
DTITLE=Kate and Anna McGarrigal - Kate and Anna McGarrigal
DYEAR=1900
DGENRE=
TTITLE0=Kiss and say goodbye
TTITLE1=My town
TTITLE2=Blues in D
TTITLE3=Heart like a wheel
TTITLE4=Foolish you
TTITLE5=(Talk to me) of Mendocino
TTITLE6=Complainte de Ste-Catherine
TTITLE7=Tell my sister
TTITLE8=Swimming song
TTITLE9=Jigsaw puzzle of life
TTITLE10=Go leave
EXTD=
EXTT0=
EXTT1=
EXTT2=
EXTT3=
EXTT4=
EXTT5=
EXTT6=
EXTT7=
EXTT8=
EXTT9=
EXTT10=
PLAYORDER=
